<?xml version="1.0" encoding="UTF-8"?>
<!DOCTYPE svg PUBLIC "-//W3C//DTD SVG 1.1//EN">
<svg xmlns="http://www.w3.org/2000/svg" viewBox="0 0 512 512" version="1.1" width="512px" height="512px" style="shape-rendering:geometricPrecision; text-rendering:geometricPrecision; image-rendering:optimizeQuality; fill-rule:evenodd; clip-rule:evenodd" xmlns:xlink="http://www.w3.org/1999/xlink">
<g><path style="opacity:0.962" fill="currentColor" d="M 419.5,127.5 C 439.982,125.815 449.148,135.148 447,155.5C 446.108,158.952 444.442,161.952 442,164.5C 370.833,235.667 299.667,306.833 228.5,378C 218.749,384.929 208.749,385.262 198.5,379C 162,342.5 125.5,306 89,269.5C 82.1045,258.071 83.2712,247.571 92.5,238C 100.985,232.522 109.651,232.188 118.5,237C 149.68,268.347 181.014,299.514 212.5,330.5C 278.653,264.847 344.653,199.014 410.5,133C 413.263,130.626 416.263,128.792 419.5,127.5 Z"/></g>
</svg>
